<svg width="38" height="38" viewBox="0 0 38 38" fill="none" xmlns="http://www.w3.org/2000/svg">
<path d="M31.688 1.84106H5.99115C4.6561 1.84106 3.3757 2.37141 2.43167 3.31545C1.48763 4.2595 0.957275 5.53988 0.957275 6.87495V32.5719C0.957275 33.907 1.48763 35.1874 2.43167 36.1314C3.3757 37.0753 4.6561 37.6058 5.99115 37.6058H17.6862V24.5516H13.2648V19.4597H17.6862V15.7088C17.6862 13.5831 18.2741 11.9312 19.4499 10.7577C20.6256 9.58189 22.2194 8.99178 24.2333 8.99178C26.2496 8.99178 27.555 9.07001 28.1518 9.21754V13.7507H25.465C24.4949 13.7507 23.8332 13.9564 23.4778 14.3677C23.1246 14.7767 22.948 15.3937 22.948 16.214V19.4597H27.9842L27.3136 24.5516H22.948V37.6058H31.688C33.0232 37.6058 34.3036 37.0753 35.2475 36.1314C36.1917 35.1874 36.7219 33.907 36.7219 32.5719V6.87495C36.7219 5.53988 36.1917 4.2595 35.2475 3.31545C34.3036 2.37141 33.0232 1.84106 31.688 1.84106Z" fill="#FF0037"/>
</svg>
