<svg width="38" height="38" viewBox="0 0 38 38" fill="none" xmlns="http://www.w3.org/2000/svg">
<path d="M30.5526 10.6961C30.5526 10.9679 30.499 11.237 30.395 11.4882C30.2911 11.7393 30.1384 11.9675 29.9464 12.1597C29.7542 12.3519 29.5259 12.5043 29.2747 12.6084C29.0237 12.7124 28.7545 12.7659 28.4827 12.7659C28.2109 12.7659 27.9418 12.7124 27.6905 12.6084C27.4395 12.5043 27.2113 12.3519 27.0191 12.1597C26.8268 11.9675 26.6744 11.7393 26.5704 11.4882C26.4663 11.237 26.4129 10.9679 26.4129 10.6961C26.4129 10.1471 26.6308 9.62061 27.0191 9.23243C27.4073 8.84425 27.9337 8.62617 28.4827 8.62617C29.0317 8.62617 29.5581 8.84425 29.9464 9.23243C30.3345 9.62061 30.5526 10.1471 30.5526 10.6961ZM37.1244 20.0396V20.0664L37.0059 27.5681C36.9757 30.2735 35.8876 32.8597 33.9746 34.7729C32.0619 36.6863 29.4759 37.7749 26.7705 37.8057L19.242 37.922H19.2152L11.7135 37.8035C9.00807 37.7733 6.42192 36.6852 4.50858 34.7724C2.59521 32.8595 1.50665 30.2735 1.47585 27.5681L1.35962 20.0396V20.0128L1.47809 12.5111C1.50829 9.80567 2.59628 7.21952 4.50922 5.30618C6.42217 3.39281 9.00807 2.30425 11.7135 2.27347L19.242 2.15723H19.2688L26.7705 2.2757C29.4759 2.3059 32.0621 3.39389 33.9753 5.30683C35.8887 7.21977 36.9773 9.80567 37.0081 12.5111L37.1244 20.0396ZM33.7938 20.0396L33.6776 12.5625C33.6565 10.7235 32.9167 8.96571 31.6164 7.66524C30.3159 6.36479 28.5581 5.62495 26.7191 5.60405L19.242 5.48782L11.7649 5.60405C9.9259 5.62495 8.16811 6.36479 6.86764 7.66524C5.56719 8.96571 4.82735 10.7235 4.80645 12.5625L4.69022 20.0396L4.80645 27.5167C4.82735 29.3556 5.56719 31.1135 6.86764 32.414C8.16811 33.7145 9.9259 34.4541 11.7649 34.4751L19.242 34.5914L26.7191 34.4751C28.5581 34.4541 30.3159 33.7145 31.6164 32.414C32.9167 31.1135 33.6565 29.3556 33.6776 27.5167L33.7938 20.0396ZM28.4246 20.0396C28.4246 22.475 27.4572 24.8106 25.7351 26.5327C24.013 28.2548 21.6774 29.2222 19.242 29.2222C16.8066 29.2222 14.471 28.2548 12.7489 26.5327C11.0268 24.8106 10.0594 22.475 10.0594 20.0396C10.0594 17.6042 11.0268 15.2686 12.7489 13.5465C14.471 11.8244 16.8066 10.857 19.242 10.857C21.6774 10.857 24.013 11.8244 25.7351 13.5465C27.4572 15.2686 28.4246 17.6042 28.4246 20.0396ZM25.094 20.0396C25.094 18.4875 24.4775 16.999 23.38 15.9016C22.2825 14.8041 20.794 14.1876 19.242 14.1876C17.6899 14.1876 16.2014 14.8041 15.104 15.9016C14.0065 16.999 13.39 18.4875 13.39 20.0396C13.39 21.5916 14.0065 23.0801 15.104 24.1776C16.2014 25.2751 17.6899 25.8916 19.242 25.8916C20.794 25.8916 22.2825 25.2751 23.38 24.1776C24.4775 23.0801 25.094 21.5916 25.094 20.0396Z" fill="#FF0037"/>
</svg>
