<svg width="38" height="38" viewBox="0 0 38 38" fill="none" xmlns="http://www.w3.org/2000/svg">
<g clip-path="url(#clip0_131_767)">
<path fill-rule="evenodd" clip-rule="evenodd" d="M0 19C0 8.50662 8.50662 0 19 0C29.4934 0 38 8.50662 38 19C38 29.4934 29.4934 38 19 38C8.50662 38 0 29.4934 0 19ZM18.431 15.4434L18.4708 16.1009L17.8063 16.0204C15.3875 15.7118 13.2744 14.6652 11.4802 12.9076L10.6031 12.0355L10.3772 12.6795C9.89868 14.1151 10.2043 15.6313 11.2011 16.651C11.7327 17.2145 11.6131 17.295 10.6961 16.9596C10.3772 16.8522 10.098 16.7718 10.0715 16.812C9.97848 16.9059 10.2974 18.1269 10.5499 18.6099C10.8955 19.2807 11.5998 19.9382 12.3707 20.3273L13.0219 20.6359L12.251 20.6493C11.5068 20.6493 11.4802 20.6627 11.56 20.9445C11.8258 21.8166 12.8757 22.7424 14.0452 23.1449L14.8692 23.4267L14.1515 23.856C13.0883 24.4732 11.8391 24.8221 10.5898 24.8489C9.9917 24.8623 9.5 24.916 9.5 24.9563C9.5 25.0904 11.1214 25.8417 12.065 26.137C14.8958 27.0091 18.2582 26.6334 20.7833 25.144C22.5775 24.0841 24.3716 21.9776 25.2089 19.9382C25.6608 18.8514 26.1127 16.8657 26.1127 15.9131C26.1127 15.2959 26.1525 15.2154 26.8967 14.4774C27.3353 14.048 27.7473 13.5784 27.8271 13.4442C27.9599 13.1893 27.9467 13.1893 27.2689 13.4174C26.1393 13.82 25.9797 13.7663 26.5379 13.1625C26.9499 12.7332 27.4416 11.955 27.4416 11.7269C27.4416 11.6866 27.2423 11.7537 27.0163 11.8744C26.7772 12.0086 26.2456 12.2099 25.8468 12.3307L25.1292 12.5588L24.4779 12.116C24.1192 11.8744 23.6141 11.6061 23.3483 11.5256C22.6705 11.3378 21.6339 11.3646 21.0226 11.5793C19.3612 12.183 18.3113 13.7395 18.431 15.4434Z" fill="#FF0037"/>
</g>
<defs>
<clipPath id="clip0_131_767">
<rect width="38" height="38" fill="white"/>
</clipPath>
</defs>
</svg>
