<svg width="24" height="24" viewBox="0 0 24 24" fill="none" xmlns="http://www.w3.org/2000/svg">
<circle cx="12" cy="12" r="12" fill="#FF2525"/>
<path d="M10.425 13.155L9.722 4.7H14.016L13.294 13.155H10.425ZM11.869 18.171C11.2357 18.171 10.7163 17.9747 10.311 17.582C9.90567 17.1893 9.703 16.7207 9.703 16.176C9.703 15.6187 9.90567 15.1563 10.311 14.789C10.7163 14.409 11.2357 14.219 11.869 14.219C12.5023 14.219 13.0153 14.409 13.408 14.789C13.8133 15.1563 14.016 15.6187 14.016 16.176C14.016 16.7207 13.8133 17.1893 13.408 17.582C13.0153 17.9747 12.5023 18.171 11.869 18.171Z" fill="white"/>
</svg>
